<?xml version="1.0" encoding="UTF-8"?>
<svg id="Capa_1" data-name="Capa 1" xmlns="http://www.w3.org/2000/svg" viewBox="0 0 847.4 953.87">
  <defs>
    <style>
      .cls-1 {
        fill: #afcd5c;
      }

      .cls-2 {
        fill: #fff;
      }

      .cls-3 {
        fill: #598c30;
      }
    </style>
  </defs>
  <path class="cls-2" d="M832.94,617.42c5.85,14.26,10.52,37.04-.44,64.56-24.06,60.52-63.29,116.18-113.44,160.93-49.68,44.34-109.1,77.13-171.84,94.83-37.91,10.7-77.44,16.12-117.48,16.12h-.01c-67.54,0-134.68-15.6-194.18-45.11-55.53-27.55-105.82-68.05-145.43-117.15-.4-.49-.79-.99-1.18-1.5-29.4-38.31-41.53-63.81-62.44-120.1-28.82-69.58-34.31-156.21-15.44-244.2,17.67-82.42,55.34-158.11,103.36-207.76,46.64-48.94,104.87-86.77,168.41-109.41,46.89-16.71,96.08-25.18,146.19-25.18,23.19,0,47.39,1.97,73.99,6.03.05.01.09.02.13.02,11.18,1.73,20.72,4.83,28.85,8.77,14.83-18.24,31.95-34.64,51.14-48.96,27.86-20.8,58.64-36.16,91.49-45.65C683.04,1.23,691.66,0,700.21,0c34.19,0,64.83,19.64,79.95,51.25,5.77,12.07,9.2,25.37,10.48,40.64.67,8.04,1,16.22.98,24.34v1.52c-.35,42.94-10.65,86.07-29.44,124.67,6.51,5.3,12.94,11.96,18.98,20.33,18.21,25.22,33.93,52.36,46.7,80.66,7.42,16.42,16.26,38.61,18.82,64.53,3.5,35.46-5.73,69.36-26,95.43-21.69,27.91-50.53,40.13-67.76,47.43-19.37,8.21-38.69,16.39-57.97,24.54,13.8-2.58,27.71-5.18,41.51-7.74.03-.01.07-.01.1-.02,6.01-1.11,12.03-1.67,17.91-1.67,22.55,0,43.6,8.29,59.28,23.33,8.34,7.99,14.8,17.47,19.19,28.19Z"/>
  <path class="cls-3" d="M713.62,117.11c-.33,40.67-12.65,81.24-35.25,115.08-26.06,39.04-65.62,68.88-110.32,83.21-5.73,1.84-12.9,3.09-17-1.32-2.24-2.41-2.84-5.88-3.26-9.15-6.18-48.03,5.09-98.11,31.25-138.86,26.89-41.89,69.37-73.65,117.22-87.47,12.6-3.64,15.82,9.88,16.65,19.79.52,6.22.75,12.47.7,18.71h0Z"/>
  <path class="cls-1" d="M526.04,862.67c104.37-29.45,193.85-108.58,233.99-209.54.78-1.96,1.54-4.17.74-6.12-.24-.59-.58-1.08-1-1.48-2.06-1.98-5.99-1.82-9.09-1.25-25.88,4.8-51.75,9.66-77.61,14.51-6.67,1.25-13.45,2.54-19.47,5.68-9.61,5.02-16.23,14.15-23.15,22.5-39.34,47.46-99.48,77.03-161.09,79.18-32.12,1.12-64.39-5.22-93.91-17.86-15.05-6.44-29.42-14.53-42.69-24.11-11.65-8.41-26.42-18.45-34.47-30.5-6.17-9.24-8.29-22.1-2.16-31.36,3.91-5.9,10.44-9.45,16.8-12.57,14.92-7.3,30.38-13.47,45.8-19.65,121.87-48.87,242.87-99.9,363.76-151.13,13.5-5.72,27.61-11.9,36.61-23.48,8.62-11.09,11.34-25.92,9.96-39.9-1.38-13.98-6.51-27.3-12.29-40.1-10.65-23.59-23.69-46.1-38.84-67.08-2.55-3.53-5.65-7.31-9.98-7.77-11.28-1.21-29.87,24.24-38.55,30.87-14.58,11.14-30.55,20.39-47.18,28.09-33.94,15.71-70.28,24.54-106.9,31.2-4.03.73-8.62.54-11.63-2.23-2.01-1.85-2.98-4.55-3.83-7.14-14.45-43.84-18.43-91.37-12.86-137.12,2.55-20.91,7.14-41.58,13.77-61.58,1.24-3.74,2.5-8.06.44-11.41-1.99-3.24-6.2-4.15-9.96-4.73-20.58-3.14-41.4-5.14-62.23-5.14-41.21,0-81.57,6.96-120.01,20.66-53.64,19.11-100.64,50.34-138.34,89.97-76.98,79.37-121.41,251.05-71.59,369.32,19.61,52.9,28.32,70.7,51.74,101.22,32.34,40.08,73.22,73.35,119.39,96.25,78.48,38.93,171.51,47.59,255.83,23.8M270.14,548.99c-6.94.16-13.46-1.55-18.27-6.54-6.69-6.94-7.21-17.67-6.46-27.28,3.63-46.62,29.77-97.19,72.05-119.69,43.04-22.9,101.45-10.7,135.45,22.97,6.52,6.46,12.62,14.53,12.41,23.7-.34,14.92-16.16,23.93-29.75,30.1-48.72,22.14-94.41,52.42-144.14,71.85-6.62,2.58-14.18,4.72-21.29,4.88h0Z"/>
</svg>