<?xml version="1.0" encoding="UTF-8"?>
<svg id="Capa_1" data-name="Capa 1" xmlns="http://www.w3.org/2000/svg" viewBox="0 0 667.49 283.72">
  <defs>
    <style>
      .cls-1 {
        fill: #afcd5c;
      }

      .cls-2 {
        fill: #598c30;
      }
    </style>
  </defs>
  <path class="cls-1" d="M667.07,223.49c-2.52,6.13-6.72,12.11-10.18,17.75-3.46,5.64-7.19,11.06-11.29,16.25-7.77,9.85-16.99,19.16-28.84,23.91-6.03,2.42-13.12,3.48-18.86.45-5.85-3.09-8.98-9.71-10.37-16.18-2.47-11.44-.76-23.4,2.23-34.72,2.99-11.32,7.26-22.28,10.01-33.65,1.66-6.84,2.43-14.99-2.49-20.02-2.68-2.74-6.58-3.94-10.39-4.38-10.14-1.17-20.44,2.44-28.71,8.43-8.26,5.99-14.67,14.21-20.02,22.91-7.45,12.11-13.08,25.26-17.64,38.7-2.29,6.74-4.13,13.59-6.18,20.4-1.39,4.62-1.76,11.36-5.79,14.56-2.26,1.79-5.33,2.13-8.22,2.17-2.66.04-7.29.13-10.07-3.28-2.43-2.96-1.99-6.79-1.83-7.91.32-4.19.64-8.39.95-12.58,1.53-2.36,3.73-5.8,6.27-10.04,5.7-9.51,6.32-12.15,7.09-14.02,1.75-4.27,1.96-9.1.09-13.31-1.93-4.34-5.54-7.47-9.78-8.85l1.14-15.67c8.67-6.1,13.46-16.69,11.75-27.83-.33-2.13-.97-4.19-1.7-6.21-2.51-6.94-7.02-12.7-6.03-20.44.92-7.21,4.24-14.11,9.35-19.29,5.95-6.03,14.27-9.66,22.74-9.93,7.48-.23,15.72,2.74,18.99,9.47,1.7,3.51,1.84,7.59,1.28,11.45-.56,3.86-1.77,7.59-2.67,11.38-.42,1.77-.65,3.96.75,5.13,3.14,2.61,5.8-1.86,7.5-3.78,2.8-3.16,5.73-6.23,9-8.92,8.01-6.57,17.93-10.66,28.18-12.24,10.24-1.58,20.79-.72,30.81,1.9,7.73,2.02,15.67,5.47,19.97,12.2,4.62,7.22,4.03,16.58,2.15,24.95-4.41,19.63-14.41,37.8-23.36,55.65-3.92,7.82-7.97,15.89-11.77,23.97-3.05,6.49-3.62,11.34-1.67,14.41,1.19,1.87,3.21,2.9,5.69,2.9,7.92,0,23.44-11.31,38.81-36.13,2.13-3.42,5.19-5.39,8.39-5.39,1.99,0,3.76.8,4.6,2.09.67,1.03.71,2.28.12,3.72Z"/>
  <path class="cls-2" d="M478.17,98.86c-.08,9.68-3.01,19.32-8.38,27.37-6.2,9.29-15.61,16.38-26.24,19.79-1.36.44-3.07.73-4.04-.31-.53-.57-.67-1.4-.77-2.18-1.47-11.42,1.21-23.34,7.43-33.03,6.4-9.96,16.5-17.52,27.88-20.81,3-.87,3.76,2.35,3.96,4.71.12,1.48.18,2.97.17,4.45Z"/>
  <path class="cls-1" d="M489.15,224.56c-.49-.47-1.42-.43-2.16-.3-6.16,1.14-12.31,2.3-18.46,3.45-1.59.3-3.2.6-4.63,1.35-2.29,1.19-3.86,3.37-5.51,5.35-9.36,11.29-23.66,18.32-38.32,18.84-7.64.27-15.32-1.24-22.34-4.25-3.58-1.53-7-3.46-10.16-5.73-2.77-2-6.28-4.39-8.2-7.25-1.47-2.2-1.97-5.26-.51-7.46.93-1.4,2.48-2.25,4-2.99,3.55-1.74,7.23-3.2,10.89-4.67,28.99-11.62,57.77-23.76,86.53-35.95,3.21-1.36,6.57-2.83,8.71-5.59,2.05-2.64,2.7-6.17,2.37-9.49-.33-3.32-1.55-6.49-2.92-9.54-2.53-5.61-5.63-10.97-9.24-15.96-.61-.84-1.34-1.74-2.37-1.85-2.68-.29-7.1,5.77-9.17,7.34-3.47,2.65-7.27,4.85-11.22,6.68-8.07,3.74-16.72,5.84-25.43,7.42-.96.17-2.05.13-2.77-.53-.48-.44-.71-1.08-.91-1.7-3.44-10.43-4.38-21.73-3.06-32.62.61-4.97,1.7-9.89,3.28-14.65.29-.89.59-1.92.1-2.72-.47-.77-1.47-.99-2.37-1.12-4.9-.75-9.85-1.22-14.8-1.22-9.8,0-19.4,1.65-28.55,4.91-12.76,4.55-23.94,11.97-32.91,21.4,0,0-14.37,77.01-14.37,77.01-.68,3.67-1.68,7.23-2.65,10.83-.84,3.08.89,5.66,2.29,8.47,2.76,5.55,6.13,10.79,10.02,15.61,7.69,9.53,17.42,17.45,28.4,22.9,18.67,9.26,40.8,11.32,60.85,5.66,24.83-7,46.11-25.83,55.66-49.84.19-.47.37-.99.18-1.45-.06-.14-.14-.26-.24-.35ZM372.69,201.59c-1.65.04-3.2-.37-4.35-1.56-1.59-1.65-1.71-4.2-1.54-6.49.86-11.09,7.08-23.12,17.14-28.47,10.24-5.45,24.13-2.54,32.22,5.46,1.55,1.54,3,3.46,2.95,5.64-.08,3.55-3.84,5.69-7.08,7.16-11.59,5.27-22.46,12.47-34.29,17.09-1.57.61-3.37,1.12-5.06,1.16Z"/>
  <path class="cls-1" d="M354.76,8.94c-2.09-2.92-6-3.74-9.55-4.34-7.91-1.33-15.83-2.66-23.74-3.99-2.2-.37-4.43-.74-6.65-.57s-4.48.93-6.04,2.53c-2.15,2.22-2.57,5.54-2.89,8.61-2.02,19.87-3.89,39.76-5.79,59.64-1.89,19.75-3.74,39.5-5.56,59.25-.54,5.84-1.08,11.69-1.61,17.53-.12,1.33-.25,2.68-.77,3.91s-1.49,2.34-2.78,2.68c-1.5.4-3.12-.34-4.21-1.44s-1.77-2.54-2.47-3.92c-4.63-9.08-11.17-17.17-19.17-23.5-9.57-7.57-21.27-12.6-33.43-13.52-11.53-.87-23.21,1.96-33.46,7.31-5.56,2.9-10.71,6.53-15.42,10.67-2.26,1.99-12.52,10.01-10.79,13.36,4.36,8.44,9.5,16.93,10.07,26.42.47,7.86-2.47,15.9-8.06,21.45-5.54,5.5-13.13,8.3-20.47,10.95-1.18.42,3.11,15.99,3.6,17.54,2.06,6.52,4.92,12.8,8.45,18.65,6.98,11.56,16.63,21.53,28.14,28.61,43.41,26.71,101.89,8.01,121.68-38.6,6.62-15.58,9.67-32.41,12.67-49.07,6.22-34.55,12.2-69.16,18.89-103.62,3.61-18.61,6.89-37.28,10.27-55.94.65-3.59,1.21-7.62-.91-10.6ZM260.28,203.61c-.41,12.76-10.72,23.08-23.48,23.49-.27.01-.53.02-.8.02-6.63,0-12.83-2.63-17.45-7.39-5.71-5.89-8.06-14.11-6.23-22.45,2.3-10.47,11.64-18.06,22.34-18.71.46-.03.9-.04,1.34-.04,6.64,0,12.84,2.63,17.46,7.4,4.62,4.76,7.04,11.04,6.82,17.69Z"/>
  <path class="cls-1" d="M165.03,166.84c-.54-2.15-1.37-4.24-2.27-6.27-13.65-30.61-45.34-51.36-78.95-51-26.54.28-52.62,13.86-68.07,35.45C-.19,167.28-4.46,197.69,4.91,223.45c9.98,27.43,35.03,48.82,63.68,54.39,29.3,5.69,61.25-5.37,80.65-28.06l.53-.62c.36-.43.72-.86,1.1-1.33.16-.2.32-.4.51-.63.23-.29.25-.68.06-1-3.04-4.96-5.62-10.16-7.73-15.55-1.16-2.95-4.3-2.61-6.54-1.01-1.56,1.11-2.7,2.69-3.89,4.18-10.31,12.85-26.98,20.32-43.43,19.45-8.83-.46-17.48-3.32-24.96-8.01-4.95-3.1-10.97-7.35-14.19-12.29-3.09-4.74,2-5.36,5.89-6.99,5.44-2.28,10.89-4.56,16.33-6.83,21.78-9.1,43.58-18.15,65.39-27.16,10.01-4.14,28.01-7.06,27.32-21.31-.06-1.3-.28-2.58-.59-3.85ZM93.39,177.29c-.03.14-.06.28-.1.41-.67,2.25-2.97,3.52-5.07,4.56-11.95,5.9-23.96,11.71-35.76,17.83-2.82,1.46-6.38,2.3-9.09.63-.92-.57-1.67-1.4-2.11-2.38-.7-1.58-.56-3.4-.31-5.12,1.33-9.14,5.16-19.05,12.48-25.03,4.86-3.97,11.17-6.08,17.44-5.96,7.31.14,14.53,3.28,19.64,8.49,1.74,1.78,3.34,4.18,2.87,6.57Z"/>
</svg>