<svg width="66" height="72" viewBox="0 0 66 72" fill="none" xmlns="http://www.w3.org/2000/svg">
<path d="M17.768 4.10135e-06C17.4341 7.57647e-05 17.1035 0.0668885 16.7951 0.196615C16.4867 0.326341 16.2066 0.516431 15.9709 0.755995L0.74118 16.1844C0.387021 16.5443 0.146071 17.0024 0.0487571 17.501C-0.0485572 17.9995 0.00212726 18.5161 0.194411 18.9854C0.386694 19.4548 0.711953 19.8559 1.12912 20.1382C1.54628 20.4204 2.03664 20.5711 2.53829 20.5712H5.07657V61.7136H2.53829C1.86509 61.7136 1.21947 61.9845 0.743447 62.4667C0.267426 62.9489 0 63.603 0 64.285C0 64.9669 0.267426 65.621 0.743447 66.1032C1.21947 66.5854 1.86509 66.8563 2.53829 66.8563H5.07657V69.4277C5.07657 70.1097 5.344 70.7638 5.82002 71.246C6.29604 71.7282 6.94166 71.9991 7.61486 71.9991H58.3806C58.4889 72.0026 58.5989 71.9957 58.7106 71.9786C59.3216 71.8974 59.8826 71.5938 60.2889 71.1245C60.6953 70.6551 60.9192 70.052 60.9189 69.4277V66.8563H63.4572C64.1304 66.8563 64.776 66.5854 65.252 66.1032C65.728 65.621 65.9955 64.9669 65.9955 64.285C65.9955 63.603 65.728 62.9489 65.252 62.4667C64.776 61.9845 64.1304 61.7136 63.4572 61.7136H60.9189V20.5712H63.4572C63.9599 20.5721 64.4515 20.4218 64.8697 20.1393C65.288 19.8568 65.614 19.4549 65.8065 18.9844C65.999 18.514 66.0493 17.9963 65.951 17.4969C65.8527 16.9975 65.6102 16.5389 65.2543 16.1792L50.0246 0.750852C49.7884 0.512217 49.5081 0.323075 49.1998 0.194239C48.8914 0.0654033 48.561 -0.000599391 48.2274 4.10135e-06H41.1558L50.9434 15.4284H38.9779L35.7137 4.10135e-06H30.2818L27.0175 15.4284H15.052L24.8397 4.10135e-06H17.768ZM10.1531 20.5712H55.8423V61.7136H10.1531V20.5712ZM27.9212 30.8568C27.4496 30.8573 26.9876 30.9908 26.5867 31.2424C26.1859 31.494 25.8622 31.8538 25.6519 32.2813L15.4988 52.8525C15.306 53.2444 15.2152 53.6796 15.235 54.1169C15.2547 54.5542 15.3844 54.9792 15.6116 55.3516C15.8389 55.7239 16.1562 56.0314 16.5336 56.2447C16.911 56.4581 17.3359 56.5703 17.768 56.5708H48.2274C48.6596 56.5703 49.0845 56.4581 49.4618 56.2447C49.8392 56.0314 50.1565 55.7239 50.3838 55.3516C50.6111 54.9792 50.7407 54.5542 50.7605 54.1169C50.7802 53.6796 50.6894 53.2444 50.4967 52.8525L40.3435 32.2813C40.1332 31.8538 39.8095 31.494 39.4087 31.2424C39.0079 30.9908 38.5458 30.8573 38.0743 30.8568H27.9212Z" fill="#273C1F"/>
</svg>
