<svg width="41" height="30" viewBox="0 0 41 30" fill="none" xmlns="http://www.w3.org/2000/svg">
<path d="M29.8182 5.6228H35.4091L41 13.2248V24.3655H37.2075C36.9831 25.9269 36.2068 27.3548 35.0209 28.3875C33.8349 29.4203 32.3187 29.9887 30.75 29.9887C29.1813 29.9887 27.665 29.4203 26.4791 28.3875C25.2932 27.3548 24.5169 25.9269 24.2925 24.3655H14.8439C14.6223 25.9291 13.8472 27.3599 12.6609 28.395C11.4747 29.4301 9.95688 30 8.38636 30C6.81584 30 5.29805 29.4301 4.11178 28.395C2.92551 27.3599 2.15041 25.9291 1.92886 24.3655H0V1.87427C0 1.37718 0.196347 0.900453 0.545846 0.54896C0.895346 0.197467 1.36937 0 1.86364 0H27.9545C28.4488 0 28.9228 0.197467 29.2723 0.54896C29.6218 0.900453 29.8182 1.37718 29.8182 1.87427V5.6228ZM29.8182 9.37133V14.9941H37.2727V14.46L33.5305 9.37133H29.8182Z" fill="#273C1F"/>
</svg>
